<svg width="1280" height="734" viewBox="0 0 1280 734" fill="none" xmlns="http://www.w3.org/2000/svg">
<mask id="path-1-inside-1_68_37" fill="white">
<path fill-rule="evenodd" clip-rule="evenodd" d="M640 135.616C569.327 135.616 501.33 140.962 437.764 150.836C423.111 153.112 409.45 142.953 405.598 128.634C385.552 54.1017 325.57 0 254.69 0C167.402 0 96.6404 82.0501 96.6404 183.264C96.6404 204.762 99.8327 225.395 105.698 244.562C109.348 256.49 105.533 269.716 95.569 277.222C34.9786 322.866 0 376.694 0 434.336C0 599.315 286.538 733.057 640 733.057C993.462 733.057 1280 599.315 1280 434.336C1280 381.448 1250.55 331.771 1198.89 288.68C1189.19 280.586 1186.01 266.99 1190.37 255.131C1198.49 233.064 1202.99 208.773 1202.99 183.264C1202.99 82.0501 1132.23 0 1044.94 0C973.24 0 912.693 55.3582 893.351 131.224C889.601 145.934 875.527 156.393 860.564 153.829C791.805 142.047 717.512 135.616 640 135.616Z"/>
</mask>
<path d="M893.351 131.224L862.343 123.319L893.351 131.224ZM860.564 153.829L855.16 185.37L860.564 153.829ZM1190.37 255.131L1220.4 266.183L1190.37 255.131ZM442.675 182.457C504.571 172.843 570.925 167.616 640 167.616V103.616C567.73 103.616 498.089 109.082 432.852 119.216L442.675 182.457ZM254.69 32C308.002 32 357.539 73.1554 374.696 136.946L436.5 120.323C413.564 35.0479 343.138 -32 254.69 -32V32ZM128.64 183.264C128.64 95.1138 189.356 32 254.69 32V-32C145.447 -32 64.6404 68.9865 64.6404 183.264H128.64ZM136.297 235.198C131.362 219.069 128.64 201.592 128.64 183.264H64.6404C64.6404 207.933 68.3039 231.722 75.0983 253.925L136.297 235.198ZM32 434.336C32 390.703 58.4554 345.244 114.823 302.781L76.3149 251.663C11.5018 300.487 -32 362.686 -32 434.336H32ZM640 701.057C466.867 701.057 311.686 668.236 200.986 616.567C87.6891 563.685 32 497.011 32 434.336H-32C-32 536.64 55.5797 619.326 173.917 674.56C294.851 731.006 459.67 765.057 640 765.057V701.057ZM1248 434.336C1248 497.011 1192.31 563.685 1079.01 616.567C968.314 668.236 813.133 701.057 640 701.057V765.057C820.33 765.057 985.149 731.006 1106.08 674.56C1224.42 619.326 1312 536.64 1312 434.336H1248ZM1178.4 313.253C1225.79 352.784 1248 394.275 1248 434.336H1312C1312 368.622 1275.32 310.757 1219.39 264.107L1178.4 313.253ZM1170.99 183.264C1170.99 205.011 1167.16 225.56 1160.34 244.08L1220.4 266.183C1229.83 240.567 1234.99 212.534 1234.99 183.264H1170.99ZM1044.94 32C1110.27 32 1170.99 95.1138 1170.99 183.264H1234.99C1234.99 68.9865 1154.18 -32 1044.94 -32V32ZM924.36 139.129C940.93 74.1317 991.024 32 1044.94 32V-32C955.456 -32 884.455 36.5847 862.343 123.319L924.36 139.129ZM640 167.616C715.764 167.616 788.247 173.904 855.16 185.37L865.969 122.289C795.363 110.191 719.26 103.616 640 103.616V167.616ZM862.343 123.319C862.372 123.205 862.421 123.064 862.714 122.858C862.903 122.724 863.283 122.507 863.885 122.36C864.522 122.205 865.259 122.167 865.969 122.289L855.16 185.37C888.735 191.123 917.055 167.78 924.36 139.129L862.343 123.319ZM1219.39 264.107C1220.07 264.67 1220.34 265.295 1220.41 265.606C1220.48 265.871 1220.45 266.046 1220.4 266.183L1160.34 244.08C1151.64 267.736 1157.59 295.895 1178.4 313.253L1219.39 264.107ZM75.0983 253.925C75.0494 253.765 75.0274 253.555 75.1211 253.246C75.2294 252.89 75.564 252.228 76.3149 251.663L114.823 302.781C136.32 286.588 143.59 259.031 136.297 235.198L75.0983 253.925ZM432.852 119.216C433.556 119.106 434.281 119.151 434.908 119.309C435.504 119.459 435.888 119.677 436.089 119.819C436.411 120.046 436.47 120.209 436.5 120.323L374.696 136.946C382.214 164.895 409.787 187.566 442.675 182.457L432.852 119.216Z" fill="#3CAA3C" mask="url(#path-1-inside-1_68_37)"/>
</svg>
